<svg width="70" height="70" viewBox="0 0 70 70" fill="none" xmlns="http://www.w3.org/2000/svg">
<g id="Arhive_load_duotone">
<path id="Rectangle 1" d="M8.75 23.5C8.75 20.6716 8.75 19.2574 9.62868 18.3787C10.5074 17.5 11.9216 17.5 14.75 17.5H55.25C58.0784 17.5 59.4926 17.5 60.3713 18.3787C61.25 19.2574 61.25 20.6716 61.25 23.5V55.25C61.25 58.0784 61.25 59.4926 60.3713 60.3713C59.4926 61.25 58.0784 61.25 55.25 61.25H14.75C11.9216 61.25 10.5074 61.25 9.62868 60.3713C8.75 59.4926 8.75 58.0784 8.75 55.25V23.5Z" fill="#7E869E" fill-opacity="0.25"/>
<path id="Rectangle 2" d="M10.75 40.8333H19.9448C21.5632 40.8333 22.3723 40.8333 22.9318 41.3072C23.4913 41.7812 23.6243 42.5793 23.8904 44.1757L24.6524 48.7477C24.7189 49.1467 24.7522 49.3463 24.892 49.4648C25.0319 49.5833 25.2342 49.5833 25.6388 49.5833H44.3612C44.7658 49.5833 44.9681 49.5833 45.108 49.4648C45.2478 49.3463 45.2811 49.1467 45.3476 48.7477L46.1096 44.1757C46.3757 42.5793 46.5087 41.7812 47.0682 41.3072C47.6277 40.8333 48.4368 40.8333 50.0552 40.8333H59.25C60.1928 40.8333 60.6642 40.8333 60.9571 41.1261C61.25 41.419 61.25 41.8904 61.25 42.8333V55.2499C61.25 58.0783 61.25 59.4926 60.3713 60.3712C59.4926 61.2499 58.0784 61.2499 55.25 61.2499H14.75C11.9216 61.2499 10.5074 61.2499 9.62868 60.3712C8.75 59.4926 8.75 58.0783 8.75 55.2499V42.8333C8.75 41.8904 8.75 41.419 9.04289 41.1261C9.33579 40.8333 9.80719 40.8333 10.75 40.8333Z" fill="#6D71F9"/>
<path id="Vector 9" d="M27.708 30.6251L34.9997 37.9167M34.9997 37.9167L42.2913 30.6251M34.9997 37.9167L34.9997 8.75008" stroke="#6D71F9" stroke-width="6" stroke-linecap="round"/>
</g>
</svg>
