<svg xmlns="http://www.w3.org/2000/svg" viewBox="0 0 590.27 408.31"><defs><style>.cls-1{fill:#f5f5ff;}.cls-2{fill:#dfdfeb;}.cls-3{fill:#7e9e6e;}.cls-10,.cls-11,.cls-14,.cls-4,.cls-7,.cls-8{fill:none;}.cls-4,.cls-7,.cls-8{stroke:#000;}.cls-11,.cls-14,.cls-4,.cls-8{stroke-linecap:round;}.cls-10,.cls-11,.cls-4{stroke-miterlimit:10;}.cls-5{fill:#333969;}.cls-6{fill:#7584f1;}.cls-14,.cls-7,.cls-8{stroke-linejoin:round;}.cls-9{fill:#f2b197;}.cls-10,.cls-11{stroke:#424242;}.cls-12{fill:#fff;}.cls-13{fill:#db9c7f;}.cls-14{stroke:#1a1c30;stroke-width:0.78px;}.cls-15{fill:#d3ddf7;}.cls-16{fill:#d19884;}</style></defs><g id="BACKGROUND"><ellipse class="cls-1" cx="232.75" cy="165.91" rx="232.75" ry="165.91"/></g><g id="OBJECTS"><ellipse class="cls-2" cx="484.02" cy="384.85" rx="106.25" ry="14.74"/><ellipse class="cls-2" cx="261.31" cy="391.96" rx="191.95" ry="16.35"/><path class="cls-3" d="M354.28,157.1s-3.55,20.62-29.44,47.15c0,0-2.86-3.54,2.09-18.2S352.8,152.11,354.28,157.1Z" transform="translate(-56.27 -54.86)"/><path class="cls-4" d="M354.28,157.1S331,173.76,324.84,204.25c0,0-1.19,10.46,2.4,19.52" transform="translate(-56.27 -54.86)"/><path class="cls-3" d="M291.68,173.75s6.53-4.95-4.71-17.31c-10.68-11.75-22-22.28-44.08-26.14,0,0,6.67,29.93,21.07,37.06A61.12,61.12,0,0,0,291.68,173.75Z" transform="translate(-56.27 -54.86)"/><path class="cls-3" d="M238.05,195.76s23.05,5,62.15-8c0,0-2.43-4-19.9-5.4S233.5,192.4,238.05,195.76Z" transform="translate(-56.27 -54.86)"/><path class="cls-4" d="M238.05,195.76s27.65-14.64,62.15-8c0,0,3.55.89,7.16,5.72" transform="translate(-56.27 -54.86)"/><path class="cls-3" d="M257.15,216.65s24.67,16.24,63.77,3.19a32.51,32.51,0,0,0-25.07-15.12C278.38,203.36,252.6,213.29,257.15,216.65Z" transform="translate(-56.27 -54.86)"/><path class="cls-4" d="M257.15,216.65s26.59-12.41,63.77,3.19a22.85,22.85,0,0,1,8,6.77" transform="translate(-56.27 -54.86)"/><path d="M340.66,137.58s7.28-.87-10.49,15.56c-16.77,15.52-14.64,15.64-14.64,15.64S321.89,145.56,340.66,137.58Z" transform="translate(-56.27 -54.86)"/><path class="cls-3" d="M303.32,176.64s5.44,2.1,15.25-6.9,13.46-29.06,22.09-32.16C340.66,137.58,319,144.57,303.32,176.64Z" transform="translate(-56.27 -54.86)"/><path class="cls-4" d="M339,245.57a345.33,345.33,0,0,0-47.3-71.82s-5.13-6.72-23-24.13-25.83-19.32-25.83-19.32" transform="translate(-56.27 -54.86)"/><path class="cls-4" d="M338.1,138.65s-20.59,9-34.78,38c-3.43,7,.68,12.59,4,16.82" transform="translate(-56.27 -54.86)"/><path class="cls-3" d="M525.86,379.15s-17.21,12.7-56.86,3.38c0,0,.1-6.36,14.33-12.48S528.11,373.26,525.86,379.15Z" transform="translate(-56.27 -54.86)"/><path class="cls-4" d="M524.63,378s-27.16-9.08-55.45,3.84c0,0-9.17,5.18-14.4,13.4" transform="translate(-56.27 -54.86)"/><path class="cls-3" d="M468.48,351.22s7.84,2.38,11.26-14c3.24-15.54,5.13-30.87-4.72-51,0,0-20.31,23-17.64,38.81A61.27,61.27,0,0,0,468.48,351.22Z" transform="translate(-56.27 -54.86)"/><path d="M526.81,357.35s6.05,4.14-18.14,4.8c-22.85.63-21.33,2.12-21.33,2.12S507.43,351,526.81,357.35Z" transform="translate(-56.27 -54.86)"/><path class="cls-3" d="M473,362.15s2.71,5.16,16,4.84,29.28-13,37.81-9.64C526.81,357.35,505.92,348.35,473,362.15Z" transform="translate(-56.27 -54.86)"/><path class="cls-4" d="M438.11,431.67a345,345,0,0,0,30.37-80.45s2.43-8.1,6.07-32.76.47-32.25.47-32.25" transform="translate(-56.27 -54.86)"/><path class="cls-4" d="M524.18,356.47s-21.41-6.81-51.2,5.68c-7.21,3-9.26,7.8-12.31,16.65" transform="translate(-56.27 -54.86)"/><path class="cls-5" d="M251.61,232.33a23.78,23.78,0,0,1-15.24-5.52l-11.86-9.9A22.61,22.61,0,0,0,210,211.44H151.08a9.67,9.67,0,0,0-9.67,9.67V434.3A16.7,16.7,0,0,0,158.1,451H451.65a13,13,0,0,0,13-13V245.32a13,13,0,0,0-13-13Z" transform="translate(-56.27 -54.86)"/><path class="cls-6" d="M464.64,439.1s-20-37.48-22-41.78l-54.6-111.23a8.36,8.36,0,0,0-7.59-4.85H177.58c-7.38,0-18.05-3.87-23.71-8.59l-8.19-6.83a22.61,22.61,0,0,0-14.54-5.47h-56a8.38,8.38,0,0,0-7.74,11.57l67.77,163.9A24.58,24.58,0,0,0,157.83,451H461a3.85,3.85,0,0,0,3.8-3.67Z" transform="translate(-56.27 -54.86)"/><line class="cls-7" x1="325.85" y1="236.96" x2="405.96" y2="392.7"/><path class="cls-7" d="M349.1,318.66h-69a5.53,5.53,0,0,1-4.65-2.51h0a5.42,5.42,0,0,1,4.65-8.33h69a5.5,5.5,0,0,1,4.64,2.51h0A5.42,5.42,0,0,1,349.1,318.66Z" transform="translate(-56.27 -54.86)"/><line class="cls-8" x1="163.74" y1="317.32" x2="217.47" y2="349.33"/><line class="cls-8" x1="207.67" y1="315.78" x2="173.91" y2="349.53"/><ellipse class="cls-8" cx="246.2" cy="387.93" rx="30.52" ry="40.4" transform="translate(-249.6 466.92) rotate(-74.54)"/><path class="cls-9" d="M524.38,232.44c1.29-5.57-4.64-12.52-10.25-11.42a38.71,38.71,0,0,0-7.58,2.23c-1.43.47-12.14-.23-13.37,1.56-.88,1.29,4.7,2.78,8.27,3.13a.77.77,0,0,1,.33,1.43c-3.51,2.18-10.5,6.6-11.1,7.69-.79,1.47-4.42,7.17-3.4,7.8s4.12-2.21,6.13-4.24,7.88-3.73,7.88-3.73S491.08,247.14,489.73,250c-2,4.24,3.81,2.38,3.81,2.38-.91,2.39,3.86,1.87,5,1,2.23-1.78,9.12-10.09,9.14-9.24s-7.12,9.9-6.4,12,3.61-.53,5.28-2.77,6.57-8.46,6.57-8.46a47.25,47.25,0,0,0,10.23-11.09C523.38,233.71,524.36,232.5,524.38,232.44Z" transform="translate(-56.27 -54.86)"/><line class="cls-4" x1="437.53" y1="197.27" x2="447.28" y2="185.65"/><path class="cls-6" d="M451.1,199.49l35.07-21.88a6.74,6.74,0,0,0,.62-.47l11.56-11.89a5.52,5.52,0,0,1,8.25,1.09l5.67,8.5a5.54,5.54,0,0,1,.11,6L504.24,194a5.54,5.54,0,0,1-2.53,2.18c-6.54,2.8-31.56,13.37-46.48,17.58a5.53,5.53,0,0,1-7-5.8l.37-4.33A5.53,5.53,0,0,1,451.1,199.49Z" transform="translate(-56.27 -54.86)"/><path d="M531.85,418.06,530,430.66S495.26,444,498.48,444.2s53.15-2.72,53.15-2.72l-2.94-22.86Z" transform="translate(-56.27 -54.86)"/><path class="cls-10" d="M541.53,214.23s2.77,26.64,4.85,28a18,18,0,0,0,4.84,2.07l-4.5-30.45Z" transform="translate(-56.27 -54.86)"/><path d="M596.4,195.91s14.08,28.68,10,44.65l-78.06-10.73L530,200Z" transform="translate(-56.27 -54.86)"/><path class="cls-11" d="M598.54,201.72s-11,20.43-32.15,22.07" transform="translate(-56.27 -54.86)"/><path class="cls-11" d="M580.88,219.43s4.27,13.24,16.69,13.52" transform="translate(-56.27 -54.86)"/><path d="M528.33,229.83s-20.92,74.45-21.46,98.42l15.28,92.35s14.58,7.24,29.76,1.39c.62-.24-7.69-47.9-8.28-97l43.64-91.32Z" transform="translate(-56.27 -54.86)"/><path d="M606.73,237.44l-3.07,89.85L638,421.22s-14.39,12.16-32.56,1.1l-37.32-89.45L572,267.79l-16.27-9.85-2.42-28.18Z" transform="translate(-56.27 -54.86)"/><polygon class="cls-12" points="490.06 166.16 506.63 178.64 530.39 152.12 472.68 160.36 486.8 179.09 490.06 166.16"/><path d="M613.75,416.54l-3,10.87s-21.92,23.77-18.69,23.77,39.22-14.72,39.22-14.72l-4.61-22.64Z" transform="translate(-56.27 -54.86)"/><path class="cls-11" d="M593.59,208.62s9.48,23.3,2.65,121.05c0,0,23.94,52.7,36.36,94.38" transform="translate(-56.27 -54.86)"/><polyline class="cls-11" points="502.48 205.41 478.59 271.97 488.84 369.19"/><path class="cls-9" d="M454.54,212.63s.46,2.33-4.7,4.11-8.2,1.21-8.2,1.21-11.58-13.65-12.09-14.13.36-5.74,3.79-7.84c2.08-1.28,10.14.8,16.16,2.64a8.75,8.75,0,0,1,6.07,9.8A19.39,19.39,0,0,1,454.54,212.63Z" transform="translate(-56.27 -54.86)"/><path class="cls-13" d="M445,209s-9.47-1.37-13.47-4.67c0,0-6-1.2-7.24-.45a11.55,11.55,0,0,1-5.06,2.29c-2.75.46-1.92-1.37,1-4,.83-.75,3-3.41,4.95-3.77a83.29,83.29,0,0,0,8.16-2.46l11.19,13.38" transform="translate(-56.27 -54.86)"/><path class="cls-9" d="M441.64,218s-3.84,2.41-5.19,2.35-2.62-.87-2.95-3.09c0,0-7.15,1.31-4.89-4.1,0,0-4.31-.7-4.43-3.52,0,0-3.83-1.91-3-5s12.87-2.79,12.87-2.79l12.76,6.48Z" transform="translate(-56.27 -54.86)"/><path class="cls-14" d="M438.93,218.47s3.65-3.24,3.44-4.53-.88-2-1.71-1.77c-1.11.34-5.34,3.56-7.16,5" transform="translate(-56.27 -54.86)"/><path class="cls-14" d="M428.61,213.11s9.72-1.52,9.81-3-.59-3.34-2.62-2.94c-2.41.48-9.33,2.14-11.62,2.09" transform="translate(-56.27 -54.86)"/><path class="cls-14" d="M440.66,212.17s1.78-1.1,1.08-2.34-1.67-1.67-3.74-1.14" transform="translate(-56.27 -54.86)"/><path class="cls-14" d="M424,205.26a13.46,13.46,0,0,1,1.28-1.4" transform="translate(-56.27 -54.86)"/><path class="cls-5" d="M428.86,172.57h5.63a0,0,0,0,1,0,0v51.51a2.72,2.72,0,0,1-2.72,2.72h-.19a2.72,2.72,0,0,1-2.72-2.72V172.57A0,0,0,0,1,428.86,172.57Z" transform="translate(-98.73 182.3) rotate(-29.34)"/><path class="cls-5" d="M428.41,184.65l2.12,3.76a2,2,0,0,1-.58,2.77l-4.58,2.57a2,2,0,0,1-2.66-.94l-2.21-3.93" transform="translate(-56.27 -54.86)"/><path class="cls-5" d="M418.62,147.77c-8.76-16.24-19.74-27.43-26.72-28l.24-1.54-3.65,2.37c-6.27,4.27-2.94,23.33,7.44,42.58s23.86,31.38,30.13,27.12l3.42-2.29-1-1.32C430.91,179.29,427.15,163.6,418.62,147.77Z" transform="translate(-56.27 -54.86)"/><ellipse class="cls-6" cx="410.92" cy="153.12" rx="13.64" ry="39.62" transform="translate(-80.52 152.36) rotate(-27.52)"/><ellipse class="cls-15" cx="410.92" cy="153.12" rx="9.48" ry="32.23" transform="translate(-80.29 154.17) rotate(-27.76)"/><path class="cls-9" d="M445,209s-9.47-1.37-13.47-4.67c0,0-6-1.2-7.24-.45a11.55,11.55,0,0,1-5.06,2.29c-2.75.46-1.92-1.37,1-4,.83-.75,3-3.41,4.95-3.77a83.29,83.29,0,0,0,8.16-2.46l11.19,13.38" transform="translate(-56.27 -54.86)"/><path class="cls-14" d="M445,209s-9.47-1.37-13.47-4.67c0,0-6-1.2-7.24-.45a11.55,11.55,0,0,1-5.06,2.29" transform="translate(-56.27 -54.86)"/><path class="cls-5" d="M418.8,147.76c-8.44-15.67-18.81-26-23.17-23a3.45,3.45,0,0,0-.88.94c5,.3,13.83,9.86,21.18,23.48,7.77,14.43,11.19,28.37,8.29,32.8a3.07,3.07,0,0,0,2-.5C430.56,178.52,427.24,163.42,418.8,147.76Z" transform="translate(-56.27 -54.86)"/><ellipse class="cls-12" cx="408.73" cy="144.47" rx="5.04" ry="17.15" transform="translate(-76.51 152.15) rotate(-27.76)"/><path class="cls-6" d="M580.86,168.43l-7-24.85a70.23,70.23,0,0,0-13-25c-10.48-13.1-38-11.91-38-11.91L501.7,122l-.2.11C489,129,486.73,139.58,487.06,156l.77,22.11,14.35-13.71,3.62,5c0-.14,0-.28,0-.41l1.71,2.7-1.67-2.29c.51,4.56,2.89,16.18,13.95,21.61l6.3,9.91-1.67,13.71c59.13,21.5,73.86-20.73,73.86-20.73Z" transform="translate(-56.27 -54.86)"/><path class="cls-4" d="M499.14,162.08l7.75,9.47s-1.06,14.6,13.64,19.28" transform="translate(-56.27 -54.86)"/><path class="cls-6" d="M557.91,181.36l-45,39.21s8.91,12.48,12.93,12.92l53.92-34.31" transform="translate(-56.27 -54.86)"/><path class="cls-4" d="M526.27,208.54s24.51-27.63,33-31.64" transform="translate(-56.27 -54.86)"/><path class="cls-4" d="M546.27,151.56s1.17,6.18,9,27.9" transform="translate(-56.27 -54.86)"/><path class="cls-4" d="M532.06,229.93s50.36-32.08,50.8-41.44-12.7-52.81-12.7-52.81" transform="translate(-56.27 -54.86)"/><path class="cls-4" d="M537.58,184.48s12.12,1.14,15.87-9.86" transform="translate(-56.27 -54.86)"/><path class="cls-4" d="M488.5,176.29a4.4,4.4,0,0,1,6.68.44" transform="translate(-56.27 -54.86)"/><path class="cls-12" d="M448.84,198.35,456,195s8.69,9.47,5.57,17.61l-8.69,2.56S456.87,206.26,448.84,198.35Z" transform="translate(-56.27 -54.86)"/><path class="cls-12" d="M515.74,215.56s9.36,4,16,15.54l-7.19,5.51s-8.86-12.7-15-14.7Z" transform="translate(-56.27 -54.86)"/><path class="cls-12" d="M507.89,105.27l29.52,2.17s1.12,16.24-16.71,30.56l-8-7.78-4.37,9.47s-6.77-3.81-7.68-14.75l1.44-13.28Z" transform="translate(-56.27 -54.86)"/><path class="cls-9" d="M522.89,106.71a4,4,0,0,1,1.34,3.73c-1,5.28-3.81,18.07-9.56,19.68-7.26,2-11.8-12.32-11.8-12.32l3.63-25.07Z" transform="translate(-56.27 -54.86)"/><path class="cls-16" d="M499.87,112.65l-.09,3.65c-.06,0-1.3,10.82,2.32,11.23,15.13-2.73,16.08-17.08,17.38-31.32C519.48,96.21,498.4,109.81,499.87,112.65Z" transform="translate(-56.27 -54.86)"/><path class="cls-9" d="M474.68,85.78S471,120.93,492.82,127s27.07-29.56,26.32-41.87-6.24-16.9-21.55-17.45C475,66.83,474.68,85.78,474.68,85.78Z" transform="translate(-56.27 -54.86)"/><path d="M494.3,102.76c.06,1.27-.54,2.32-1.35,2.36s-1.5-1-1.57-2.21.54-2.33,1.35-2.37S494.23,101.49,494.3,102.76Z" transform="translate(-56.27 -54.86)"/><path class="cls-4" d="M496.69,96.28s-7.21,3.14-7.92-2.31" transform="translate(-56.27 -54.86)"/><path class="cls-4" d="M480,96.3s-2.39,4.14-5.13,2.3" transform="translate(-56.27 -54.86)"/><path class="cls-4" d="M476.18,103.65a4.69,4.69,0,0,1,3.37.61" transform="translate(-56.27 -54.86)"/><path class="cls-4" d="M497.56,116.76a11,11,0,0,1,3.6-2.31" transform="translate(-56.27 -54.86)"/><path class="cls-4" d="M482.81,107.7a3.12,3.12,0,0,0,1.93,4.21" transform="translate(-56.27 -54.86)"/><path d="M474.42,93.33s.37-10.29,4.93-16.1c0,0,6.27,14.25,33.29,17.15l7.87-1.65s3.22-16.5-8.07-23-28.56-2.91-34.11,2.94A18.42,18.42,0,0,0,474.42,93.33Z" transform="translate(-56.27 -54.86)"/><polygon points="451.13 37.64 455.81 46.88 459.11 36.5 451.13 37.64"/><ellipse class="cls-9" cx="517.54" cy="99.14" rx="9.22" ry="6.41" transform="translate(225.11 515.34) rotate(-74.22)"/><path class="cls-8" d="M520.3,96.5s-3.85-3.31-5.95,2.74c0,0,2.25,2.39.83,4.26a3.11,3.11,0,0,0,3.31-1.45" transform="translate(-56.27 -54.86)"/><path class="cls-8" d="M518.64,98.82a6,6,0,0,0-1.71-2.88" transform="translate(-56.27 -54.86)"/><path class="cls-12" d="M520.51,107.87a3.34,3.34,0,1,1-3.34-3.34A3.34,3.34,0,0,1,520.51,107.87Z" transform="translate(-56.27 -54.86)"/><path d="M511.16,74s4.1-21.43,13.68-17.32,13.91,24.62,4.79,26.22a25.26,25.26,0,0,1-16.19-2.74Z" transform="translate(-56.27 -54.86)"/><path class="cls-4" d="M511.27,80.19s15.85,13.23,21,1" transform="translate(-56.27 -54.86)"/><line class="cls-11" x1="514.89" y1="212.42" x2="496.55" y2="202.07"/><path class="cls-15" d="M154.79,131.33a38.49,38.49,0,0,1,25.93,65.92,4.8,4.8,0,0,0-1.39,4.23l2.86,16.87-17.55-10.22a4.72,4.72,0,0,0-3.31-.57,38.5,38.5,0,1,1-6.54-76.23Z" transform="translate(-56.27 -54.86)"/><path d="M152,183.15l-.1-9.21a18.41,18.41,0,0,0,3.67-1.28,13.79,13.79,0,0,0,2.92-1.82,10.4,10.4,0,0,0,2.09-2.32,10,10,0,0,0,1.28-2.75,10.85,10.85,0,0,0,.44-3.1,9,9,0,0,0-4.41-7.76,9.6,9.6,0,0,0-5.07-1.28,10.55,10.55,0,0,0-5.85,1.74,10.89,10.89,0,0,0-4.12,5.94l-1-.66a11.57,11.57,0,0,1,4.2-6.1,11.94,11.94,0,0,1,12.33-.76,9.91,9.91,0,0,1,5.15,8.88,11.23,11.23,0,0,1-.73,4.08,12,12,0,0,1-2.07,3.49,13.27,13.27,0,0,1-3.25,2.75,15.19,15.19,0,0,1-4.3,1.77l-.11,8.39ZM151.3,190a1.81,1.81,0,0,1,.38-1.17,1.5,1.5,0,0,1,2.13,0,2,2,0,0,1,.32,1.2,2,2,0,0,1-.35,1.15,1.24,1.24,0,0,1-1.06.49,1.3,1.3,0,0,1-1.07-.44A1.88,1.88,0,0,1,151.3,190Z" transform="translate(-56.27 -54.86)"/><path class="cls-11" d="M598.72,201.36" transform="translate(-56.27 -54.86)"/></g></svg>