<?xml version="1.0" standalone="no"?>
<!DOCTYPE svg PUBLIC "-//W3C//DTD SVG 20010904//EN"
 "http://www.w3.org/TR/2001/REC-SVG-20010904/DTD/svg10.dtd">
<svg version="1.0" xmlns="http://www.w3.org/2000/svg"
 width="512.000000pt" height="512.000000pt" viewBox="0 0 512.000000 512.000000"
 preserveAspectRatio="xMidYMid meet">

<g transform="translate(0.000000,512.000000) scale(0.100000,-0.100000)"
fill="#000000" stroke="none">
<path d="M1382 4369 c-156 -26 -285 -158 -311 -319 -6 -36 -11 -201 -11 -367
l0 -302 -207 -3 c-187 -3 -213 -5 -254 -24 -67 -31 -124 -87 -156 -152 l-28
-57 0 -835 0 -835 28 -57 c52 -107 142 -164 275 -176 l77 -7 5 -222 c5 -210 6
-224 26 -244 14 -13 35 -21 58 -22 35 -1 48 10 284 246 l247 247 735 2 735 3
50 25 c66 32 121 90 153 159 25 54 27 65 30 259 l4 202 166 0 167 0 312 -312
c306 -306 313 -313 353 -313 30 0 47 7 68 28 l27 27 5 283 5 282 98 7 c152 11
256 67 325 176 65 101 63 63 60 1088 l-3 929 -32 67 c-57 120 -158 197 -290
218 -74 12 -2928 11 -3001 -1z m3064 -116 c67 -36 101 -70 133 -135 l31 -61 0
-917 c0 -1045 5 -976 -84 -1066 -63 -62 -121 -84 -225 -84 -90 0 -135 -20
-163 -71 -16 -30 -18 -61 -18 -293 l0 -260 -298 296 c-195 195 -310 302 -334
313 -33 13 -163 15 -1072 15 l-1034 0 -63 33 c-40 20 -75 48 -96 75 -66 87
-64 52 -61 1058 l3 909 23 47 c31 62 111 134 171 152 39 13 266 14 1546 13
l1500 -2 41 -22z m-3384 -1515 c3 -536 3 -544 26 -598 41 -102 141 -198 240
-232 28 -10 231 -13 865 -16 l828 -2 -3 -198 c-3 -189 -4 -199 -28 -242 -14
-24 -45 -58 -68 -75 l-44 -30 -751 -5 c-414 -3 -754 -7 -756 -8 -2 -1 -109
-106 -238 -234 l-233 -232 0 182 c0 259 -11 280 -158 292 -95 8 -132 22 -174
67 -60 63 -58 27 -58 908 0 773 1 807 19 843 11 20 32 49 48 64 54 52 82 57
290 58 l192 0 3 -542z"/>
<path d="M1606 3664 c-14 -14 -16 -75 -16 -529 0 -454 2 -515 16 -529 22 -22
50 -20 68 6 13 19 16 60 16 245 l0 223 224 0 c124 0 236 4 249 9 30 12 42 43
27 71 -10 19 -19 20 -255 20 l-245 0 0 200 0 200 238 0 c219 0 240 2 255 18
22 24 21 45 -1 65 -16 15 -51 17 -290 17 -233 0 -273 -2 -286 -16z"/>
<path d="M2618 3663 c-18 -21 -359 -999 -358 -1028 0 -12 5 -26 12 -33 16 -16
53 -15 66 1 5 6 34 81 63 165 l53 152 196 0 197 0 52 -152 c29 -84 57 -159 63
-165 17 -21 56 -15 73 10 14 22 11 34 -44 193 -33 93 -114 324 -180 513 -66
189 -126 348 -133 352 -21 14 -44 10 -60 -8z m112 -409 c41 -119 77 -220 78
-225 2 -5 -69 -9 -158 -9 -89 0 -160 4 -158 9 2 5 37 106 78 225 41 119 77
216 80 216 3 0 39 -97 80 -216z"/>
<path d="M3520 3665 c-80 -20 -127 -42 -198 -92 -296 -210 -296 -668 0 -876
191 -134 415 -141 611 -21 l59 36 62 -61 c61 -60 90 -73 114 -49 26 26 13 62
-47 123 l-60 60 38 58 c116 175 113 422 -5 594 -129 187 -362 280 -574 228z
m235 -100 c264 -69 407 -371 292 -618 -49 -104 -44 -103 -140 -9 -51 49 -93
82 -105 82 -20 0 -52 -33 -52 -54 0 -4 39 -48 86 -96 l86 -88 -24 -16 c-12 -8
-50 -28 -83 -43 -55 -26 -70 -28 -175 -28 -110 0 -118 1 -182 33 -98 48 -170
118 -215 210 -38 75 -38 77 -38 196 0 117 1 123 33 189 95 194 311 295 517
242z"/>
</g>
</svg>
