<?xml version="1.0" standalone="no"?>
<!DOCTYPE svg PUBLIC "-//W3C//DTD SVG 20010904//EN"
 "http://www.w3.org/TR/2001/REC-SVG-20010904/DTD/svg10.dtd">
<svg version="1.0" xmlns="http://www.w3.org/2000/svg"
 width="512.000000pt" height="512.000000pt" viewBox="0 0 512.000000 512.000000"
 preserveAspectRatio="xMidYMid meet">

<g transform="translate(0.000000,512.000000) scale(0.100000,-0.100000)"
fill="#000000" stroke="none">
<path d="M1515 5109 c-40 -11 -93 -64 -116 -114 -18 -38 -19 -103 -19 -1363 0
-889 3 -1330 10 -1343 13 -22 61 -49 90 -49 29 0 76 26 86 47 5 10 11 605 14
1323 l5 1305 1465 -4 1465 -3 3 -1593 2 -1593 -52 -7 c-28 -4 -147 -4 -263 0
-184 6 -220 5 -271 -10 -69 -20 -117 -64 -133 -120 -7 -25 -11 -147 -11 -317
l0 -278 -580 0 -580 0 -30 -27 c-63 -58 -42 -151 40 -173 64 -17 1347 -9 1380
9 33 18 637 615 672 665 l28 39 0 1729 c0 1573 -1 1732 -16 1761 -23 45 -53
76 -99 100 l-40 22 -1510 2 c-856 1 -1523 -3 -1540 -8z m2715 -3824 c-185
-185 -225 -221 -227 -203 -1 13 -4 114 -5 226 l-4 202 231 0 230 0 -225 -225z"/>
<path d="M1815 4657 c-20 -16 -28 -35 -32 -69 -5 -43 -3 -50 25 -78 l31 -30
1200 2 1199 3 26 24 c31 29 42 73 27 109 -25 60 53 57 -1253 60 l-1197 2 -26
-23z"/>
<path d="M1853 4233 c-32 -6 -73 -59 -73 -94 0 -41 23 -83 55 -97 19 -9 252
-12 936 -12 792 0 914 2 939 15 80 42 62 160 -28 185 -36 10 -1779 13 -1829 3z"/>
<path d="M1833 3775 c-61 -26 -73 -102 -24 -157 l29 -33 401 -3 c419 -3 464 1
500 39 47 50 28 126 -38 152 -36 15 -92 17 -439 17 -315 -1 -404 -4 -429 -15z"/>
<path d="M1834 3330 c-59 -24 -73 -112 -26 -160 l29 -28 679 -4 c373 -2 692 0
708 4 75 19 103 106 52 165 l-24 28 -699 2 c-384 1 -708 -2 -719 -7z"/>
<path d="M1815 2867 c-20 -16 -28 -35 -32 -69 -5 -42 -3 -50 25 -78 l30 -30
1085 0 c1063 0 1085 0 1109 20 39 30 52 71 38 115 -23 69 49 65 -1149 65
l-1080 0 -26 -23z"/>
<path d="M1330 2089 c-243 -28 -462 -140 -641 -327 -229 -239 -328 -553 -275
-870 74 -443 384 -772 819 -869 92 -20 308 -23 402 -4 328 65 601 269 744 557
84 169 116 326 109 521 -6 154 -32 260 -92 389 -59 125 -115 205 -210 300
-176 176 -396 279 -646 304 -107 11 -107 11 -210 -1z m272 -213 c264 -51 484
-222 602 -469 54 -114 75 -194 83 -317 24 -412 -276 -792 -687 -870 -83 -16
-247 -13 -330 6 -311 71 -559 312 -641 624 -17 65 -22 112 -22 200 1 223 76
410 231 572 202 212 488 307 764 254z"/>
<path d="M1840 1472 c-25 -12 -103 -103 -269 -310 l-234 -293 -142 140 c-128
128 -145 141 -177 141 -64 0 -112 -62 -100 -130 7 -35 368 -397 406 -406 56
-14 81 11 357 357 146 184 274 348 283 366 31 61 12 113 -50 139 -41 17 -32
17 -74 -4z"/>
</g>
</svg>
