<?xml version="1.0" encoding="utf-8"?>
<!-- Generator: Adobe Illustrator 27.3.1, SVG Export Plug-In . SVG Version: 6.00 Build 0)  -->
<svg version="1.1" id="Layer_1" xmlns="http://www.w3.org/2000/svg" xmlns:xlink="http://www.w3.org/1999/xlink" x="0px" y="0px"
	 viewBox="0 0 205.3 205.3" style="enable-background:new 0 0 205.3 205.3;" xml:space="preserve">
<style type="text/css">
	.st0{fill:#939598;}
</style>
<path class="st0" d="M202.31,202.31L202.31,202.31c-3.99,3.99-10.45,3.99-14.44,0L2.99,17.43C-1,13.45-1,6.98,2.99,2.99l0,0
	C6.98-1,13.45-1,17.43,2.99l184.87,184.87C206.29,191.85,206.29,198.32,202.31,202.31z"/>
<path class="st0" d="M2.99,202.31L2.99,202.31c3.99,3.99,10.45,3.99,14.44,0L202.31,17.43c3.99-3.99,3.99-10.45,0-14.44l0,0
	c-3.99-3.99-10.45-3.99-14.44,0L2.99,187.86C-1,191.85-1,198.32,2.99,202.31z"/>
</svg>
