<?xml version="1.0" encoding="utf-8"?>
<!-- Generator: Adobe Illustrator 27.3.1, SVG Export Plug-In . SVG Version: 6.00 Build 0)  -->
<svg version="1.1" id="Layer_1" xmlns="http://www.w3.org/2000/svg" xmlns:xlink="http://www.w3.org/1999/xlink" x="0px" y="0px"
	 viewBox="0 0 209.33 209.33" style="enable-background:new 0 0 209.33 209.33;" xml:space="preserve">
<style type="text/css">
	.st0{fill:#939598;}
</style>
<path class="st0" d="M204.32,204.32L204.32,204.32c-6.68,6.68-17.51,6.68-24.19,0L5.01,29.2c-6.68-6.68-6.68-17.51,0-24.19l0,0
	c6.68-6.68,17.51-6.68,24.19,0l175.12,175.12C211,186.81,211,197.64,204.32,204.32z"/>
<path class="st0" d="M5.01,204.32L5.01,204.32c6.68,6.68,17.51,6.68,24.19,0L204.32,29.2c6.68-6.68,6.68-17.51,0-24.19l0,0
	c-6.68-6.68-17.51-6.68-24.19,0L5.01,180.13C-1.67,186.81-1.67,197.64,5.01,204.32z"/>
</svg>
